<svg id="圖層_1" data-name="圖層 1" xmlns="http://www.w3.org/2000/svg" viewBox="0 0 174.98 217.33"><defs><style>.cls-1,.cls-2{fill:#231815;}.cls-2{stroke:#231815;stroke-miterlimit:10;}</style></defs><title>yuho logo</title><path d="M169.26,138.94c-6.73-10.28-16.31-17.3-27.66-19-25.83-3.9-51,21.11-56.27,55.87A80.84,80.84,0,0,0,86.79,208a63.48,63.48,0,0,0,7.68,18.06c5.24,8.27,12.28,14.52,20.6,17.72l2.54.88a35.66,35.66,0,0,0,5,1.13,36.89,36.89,0,0,0,18.51-2,51.09,51.09,0,0,0,20.5-14.8c.67-.54,1.36-1.09,2.08-1.7a2.78,2.78,0,0,0-.15-.63c-.26-.69-.86-1.37-2.12-.69-3.78,2.05-7.07-.18-10.53-.69-2.14-.31-4.21-1-6.39-1.32,3.23,4.19,8.49,3.16,12.76,4.61-1.29,4.36-5.25,6.39-9.25,4.67-2.17-.93-4.22-2.13-6.34-3.19-.68-.34-1.4-.59-2.37-1,.62,3.15.62,3.15,9.84,6.75-2.92,4.19-6.11,4.59-11,1.22-2.06-1.43-4-3.08-6.34-5-.72,3.22,1.58,4.29,3.19,5.54a60.27,60.27,0,0,0,5.54,3.42c-6.21,3.25-8,2.38-12.88-3.51a36.37,36.37,0,0,0-3.59-4.43c-.17,4.48,2.77,7.36,5.72,10.25-3.58,1.38-6.06.75-7.69-2.21-1.29-2.34-2.19-4.87-3.33-7.29a6.28,6.28,0,0,0-2-2.43c-.38,4,1.52,7.26,3.42,10.57-3.3.39-6.27-1.25-7.12-3.85-.93-2.83-1.83-5.66-2.74-8.5l-1.24.19.84,7.83c-2.93-.67-3.28-2.94-3.62-5s-.35-4.3-.88-6.47c-2.62,1.71-.83,4.3-1.5,6.5-3.76-1.89-4.2-5-3.23-9.25l-3.07,2.17c-.44-1.4-.82-2.67-1.23-3.93a4.35,4.35,0,0,0-.67-1.74c-2.51-2.51-4-5.17-1.87-8.6.11-.17-.07-.51-.14-1l-2.58.42c-2.29-3.2,2.58-4.31,1.84-7.39l-3.28,1.29c-3.59-4,2.19-4.37,3.16-7.38l-4.41.61c-1.59-3.4-1-5,2.46-6.33-1.17-1.12-3.18-2.18-3.32-3.43s1.5-2.8,2.51-4.45c-1.94-.6-2.77-2.53-1.79-4.75.33-.74,2.07-.91,3.5-1.48-2.16-1.6-3.86-3.57-1.91-6.72a12.91,12.91,0,0,0,1.84.7,13.52,13.52,0,0,0,2,.17,10.56,10.56,0,0,0-.79-1.84c-.72-1.09-2.14-2.08-2.22-3.18-.12-1.84.64-3.63,3.34-2.31.33.16.86-.05,2-.15-.92-1-1.48-1.67-2.07-2.29-2-2-1.34-3.89,1.41-4.85.54-.19.88-1.4,1-2.18a24,24,0,0,0-.15-3.59l1.06-.23,2,2.56c1.89-2.86-2.15-6.78,2-9.17l2,4.17.44-.23c0-2.67-.69-5.58.19-7.95s3.33-4.2,5.08-6.27l.84.4.62,5.3.79.35c.93-5.69,1.05-11.91,9-13.27l-3.66,10.79,1.13.44c1.64-3.23,3.4-6.4,4.89-9.69,2-4.46,5.81-6.48,11.4-5.47l-7.19,12.66.77.54a15.79,15.79,0,0,0,2.17-2.15c2-2.92,3.85-5.92,5.82-8.86,2.13-3.17,6-3.64,9.47-1l-10.75,13,.88.81c1.72-1.55,3.51-3,5.13-4.66,2.11-2.14,4.16-4.33,6.07-6.63,1.39-1.68,2.67-1.95,4.66-.83,5.2,2.94,5.23,2.86,1.1,6.88-1.81,1.76-3.6,3.54-5.34,5.36a6,6,0,0,0-.79,1.61l.74.54c1.27-1,2.57-2,3.81-3q2.92-2.45,5.78-5a2.47,2.47,0,0,1,3.74,0c4.51,3.84,4.51,4.41-.3,7.74-1.42,1-2.79,2-4.18,3.05l.62,1c2.35-1.22,4.79-2.31,7-3.69,2-1.22,2.83-.87,3.88,1.14,2.79,5.37,2.89,5.28-2.69,8.11-1.63.83-3.12,1.91-4.68,2.88l.59,1c2.42-1,4.88-1.81,7.24-2.88,2.53-1.16,4.16-.66,4.94,2,.34,1.15.63,2.31,1,3.44.9,2.52.4,4.24-2.58,5a12.33,12.33,0,0,0-3,1.75l.3.87a18.76,18.76,0,0,0,3.32-.61c2.28-.85,3.76-.61,3.86,2.1q.39,10.74.8,21.48c0,1.2.15,2.4.23,3.6l1.2.1c.46-2.9,1.25-5.79,1.31-8.7C179.32,166.46,177.11,152,169.26,138.94Z" transform="translate(-79.89 -83.54)"/><path d="M148.87,216.89l-.13,1.18c6.14,3.17,12.7,2.44,19.21,2.17l1.45-.05.06-.82-.9-.11Z" transform="translate(-79.89 -83.54)"/><path d="M168,210.28H156.32l0,.63H168Z" transform="translate(-79.89 -83.54)"/><path d="M136.67,187.9c0,20.39-8.83,36.92-19.72,36.92S97.24,208.29,97.24,187.9,106.07,151,117,151c6.18,0,11.7,5.33,15.32,13.67,1.38,3.17-9.77,20.7-9.77,20.7S136.67,183.49,136.67,187.9Z" transform="translate(-79.89 -83.54)"/><path class="cls-1" d="M228.7,281.07a83.24,83.24,0,0,1-24.59,14.47,86.78,86.78,0,0,1-13.93,3.89A81.45,81.45,0,0,1,147.1,296a91.76,91.76,0,0,1-25.47-14,100.79,100.79,0,0,1-20.12-21,112.67,112.67,0,0,1-13.74-25.57,122.07,122.07,0,0,1-7.12-57.13A119.24,119.24,0,0,1,87.29,150a113.79,113.79,0,0,1,13.44-25.68,101.42,101.42,0,0,1,19.79-21.18,91.85,91.85,0,0,1,25.16-14.34,84.29,84.29,0,0,1,56.78-.75,88.15,88.15,0,0,1,25.13,13.62,97.74,97.74,0,0,1,19.68,20.49,101.51,101.51,0,0,0-20.49-19.39,89,89,0,0,0-25.08-12.4,82.22,82.22,0,0,0-54.58,2.2,87.53,87.53,0,0,0-23.7,14.14,100.19,100.19,0,0,0-18.57,20.46,113.42,113.42,0,0,0-18.72,51.63A119.21,119.21,0,0,0,93,233.4a103.53,103.53,0,0,0,31.87,44.41,86.69,86.69,0,0,0,23.9,13.55,82.11,82.11,0,0,0,27,5.09,88.79,88.79,0,0,0,27.46-3.56A95.92,95.92,0,0,0,228.7,281.07Z" transform="translate(-79.89 -83.54)"/><path class="cls-2" d="M195.77,186.65a22.16,22.16,0,0,1-7.23,4.57c-.76.18-1.92.36-2.42-.77a11.45,11.45,0,0,0,1.92-.5,14.16,14.16,0,0,1-.65-3.12l-.4-3.48a77,77,0,0,1-.43-10.85,59,59,0,0,1,1.34-10.72c.11-.41.29-.9.54-1a12.23,12.23,0,0,1,4.16,1.4,22.33,22.33,0,0,1,4.81,3.53,14.15,14.15,0,0,1,2.46,3.26,11.6,11.6,0,0,1,1.34,4.34,16.3,16.3,0,0,1-.69,6.15A19.17,19.17,0,0,1,195.77,186.65Zm0-20.44a16.28,16.28,0,0,0-3.33-2.22c-1.19-.59-2.39-1.13-3.4-1.54a48.48,48.48,0,0,0-1.16,9.09A87.09,87.09,0,0,0,189,189.36a23.05,23.05,0,0,0,5.14-3.26,21,21,0,0,0,3.54-4.2,13.26,13.26,0,0,0,1.92-9.95A13.8,13.8,0,0,0,195.81,166.21Z" transform="translate(-79.89 -83.54)"/><path class="cls-2" d="M211.29,189.32a5.77,5.77,0,0,1-3.18,1.76,3.4,3.4,0,0,1-3.11-1.36,6.31,6.31,0,0,1-.9-1.58,7.59,7.59,0,0,1-.4-1.31,3.28,3.28,0,0,1-.94.63,1.28,1.28,0,0,1-1.19-.14.94.94,0,0,1-.11-.95,2,2,0,0,1,.65-.27,4,4,0,0,0,.54-.23c.25-.14.61-.45.9-.63a27.78,27.78,0,0,1,.25-6.24,10.61,10.61,0,0,1,1.7-4.39,3.42,3.42,0,0,1,3.29-.95c1.27.54,2.21,2.21,2.71,3.66a3.17,3.17,0,0,1-.58,2.31c-.33.45-.72.95-1.12,1.4l-.54.63a6.17,6.17,0,0,0-.43.59,23.6,23.6,0,0,1-2,2c-.69.63-1.37,1.22-2,1.72a4.59,4.59,0,0,0,1.45,3.21,2.38,2.38,0,0,0,2.6.14,6.86,6.86,0,0,0,2.13-1.58,10,10,0,0,0,2.42-4c.18-.23.51.23.51.41a7.48,7.48,0,0,1-.83,2.67A10.8,10.8,0,0,1,211.29,189.32Zm-5-13.43a10.13,10.13,0,0,0-1.19,3.26,19.17,19.17,0,0,0-.33,5c.69-.59,1.41-1.22,2.13-1.9a17.33,17.33,0,0,0,2.13-2.35,4.4,4.4,0,0,0,1.27-2.12,5.9,5.9,0,0,0-1.52-2.44A2.36,2.36,0,0,0,206.3,175.89Z" transform="translate(-79.89 -83.54)"/><path class="cls-2" d="M224.13,189.32a5.78,5.78,0,0,1-3.18,1.76,3.4,3.4,0,0,1-3.11-1.36,6.31,6.31,0,0,1-.9-1.58,7.59,7.59,0,0,1-.4-1.31,3.28,3.28,0,0,1-.94.63,1.28,1.28,0,0,1-1.19-.14.94.94,0,0,1-.11-.95,2,2,0,0,1,.65-.27,4,4,0,0,0,.54-.23c.25-.14.61-.45.9-.63a27.72,27.72,0,0,1,.25-6.24,10.61,10.61,0,0,1,1.7-4.39,3.42,3.42,0,0,1,3.29-.95c1.27.54,2.21,2.21,2.71,3.66a3.17,3.17,0,0,1-.58,2.31c-.33.45-.72.95-1.12,1.4l-.54.63a6.17,6.17,0,0,0-.43.59,23.6,23.6,0,0,1-2,2c-.69.63-1.37,1.22-2,1.72a4.59,4.59,0,0,0,1.45,3.21,2.38,2.38,0,0,0,2.6.14,6.86,6.86,0,0,0,2.13-1.58,10,10,0,0,0,2.42-4c.18-.23.51.23.51.41a7.48,7.48,0,0,1-.83,2.67A10.8,10.8,0,0,1,224.13,189.32Zm-5-13.43a10.13,10.13,0,0,0-1.19,3.26,19.17,19.17,0,0,0-.33,5c.69-.59,1.41-1.22,2.13-1.9a17.3,17.3,0,0,0,2.13-2.35,4.4,4.4,0,0,0,1.27-2.12,5.9,5.9,0,0,0-1.52-2.44A2.36,2.36,0,0,0,219.14,175.89Z" transform="translate(-79.89 -83.54)"/><path class="cls-2" d="M233.93,189.72a5.23,5.23,0,0,1-3.76,1.22c-.11,1.85-.07,3.84-.18,5.74a17.66,17.66,0,0,1-.61,4c-.18.41-.65.86-1,.77a40.58,40.58,0,0,0,.47-5.11c.11-2,.11-4,.14-6.1l-.58-.54a2.17,2.17,0,0,1-.54-.77c-.11-.18.11-.68.36-.54a2.55,2.55,0,0,1,.69.5l.07,0c.11-2.53-.11-8-.36-11.75a2.48,2.48,0,0,1-.07-1c.22-.41.51-.32.76-.09a1.33,1.33,0,0,1,.4.45,8.35,8.35,0,0,1,2.57-2.53,3.44,3.44,0,0,1,5.24,1.49,9.11,9.11,0,0,1,.94,4.16,14.2,14.2,0,0,1-1.66,6.6A10.84,10.84,0,0,1,233.93,189.72Zm1.12-14.78a3.16,3.16,0,0,0-2.68.54,9,9,0,0,0-2.46,3c.14,3.71.29,7.23.29,11,2.46.14,4.52-2.08,5.75-4.52a12.31,12.31,0,0,0,1.23-5.52,7,7,0,0,0-.87-3.53A2.08,2.08,0,0,0,235.05,174.94Z" transform="translate(-79.89 -83.54)"/><path class="cls-2" d="M207.63,207.49a4.11,4.11,0,0,0-.47-.68,4.46,4.46,0,0,0-2.06-1,8.88,8.88,0,0,0-4.77.54,7.31,7.31,0,0,0-3,1.94.78.78,0,0,1-.54-.36l-.11-.14a1,1,0,0,1,.51-1.27,9.9,9.9,0,0,1,5.6-2.22,10.26,10.26,0,0,1,3.65.45l.72.45a2.7,2.7,0,0,1,.65.72,3.54,3.54,0,0,1,.47,1.58.3.3,0,0,1-.51.23Zm1.52,9.36c-3.72,3-7.63,5.65-11.1,9.36a9,9,0,0,0,.72,4.16,4.66,4.66,0,0,0,3,2.44,7.46,7.46,0,0,0,5.75-1.27,7.66,7.66,0,0,0,1.74-1.76c.18-.14.29.09.33.23a.65.65,0,0,1,0,.45,6.27,6.27,0,0,1-3.33,3.35,7.81,7.81,0,0,1-3.83.63,5.74,5.74,0,0,1-3.8-1.9,8.59,8.59,0,0,1-1.81-5.11c-.18-2.44.11-5.11.11-7.46a51.8,51.8,0,0,1,.76-6.69,2.84,2.84,0,0,1,1.34-1.63,1,1,0,0,1,1,.59c0,.5-.4.68-.69.86l-.22.18a2.59,2.59,0,0,0-.51,1.58,61.86,61.86,0,0,0-.58,9.36,62.79,62.79,0,0,1,11.28-8.77.68.68,0,0,1,.76.27,1.34,1.34,0,0,1-.43.72Z" transform="translate(-79.89 -83.54)"/><path class="cls-2" d="M212.77,245.06a4.75,4.75,0,0,1-3.69-1.72,5.61,5.61,0,0,1-.83-1.94l.61.5a12.5,12.5,0,0,0,1.08,1,5.36,5.36,0,0,0,2.82.86c2,0,3.58-1,5.1-2.53a11,11,0,0,0,1.88-2.76,7.17,7.17,0,0,0,.62-3.66c-.51-5.06-.8-10.31-.87-15.6a102.12,102.12,0,0,1-5.82,10.31,1.17,1.17,0,0,1-1.34.59c-.43-.09-.65-.54-.83-.9a39.59,39.59,0,0,1-.07-5.06c.07-1.67.22-3.35.25-5a1,1,0,0,0-.11-.72l-.18-.36a2.71,2.71,0,0,1-.18-.36.66.66,0,0,1,.72-.9,2,2,0,0,1,.83,1,10.87,10.87,0,0,1,.15,2.62c0,1.45-.29,2.85-.25,4.39,0,.63,0,1.36,0,2a17.1,17.1,0,0,0,.07,1.94s.18.09.25,0a77.63,77.63,0,0,0,6.65-11.57c.22-.23.47-.41.83-.18a1.48,1.48,0,0,1,.36.86,123.94,123.94,0,0,0,.83,17.59,9.08,9.08,0,0,1-.83,3.57C219.21,242.57,216.06,245.2,212.77,245.06Z" transform="translate(-79.89 -83.54)"/><path class="cls-2" d="M233.64,232.72a5.78,5.78,0,0,1-3.18,1.76,3.4,3.4,0,0,1-3.11-1.36,6.3,6.3,0,0,1-.9-1.58,7.55,7.55,0,0,1-.4-1.31,3.3,3.3,0,0,1-.94.63,1.28,1.28,0,0,1-1.19-.14.94.94,0,0,1-.11-.95,2,2,0,0,1,.65-.27,4.08,4.08,0,0,0,.54-.23c.25-.13.61-.45.9-.63a27.78,27.78,0,0,1,.25-6.24,10.61,10.61,0,0,1,1.7-4.38,3.42,3.42,0,0,1,3.29-1c1.27.54,2.21,2.22,2.71,3.66a3.17,3.17,0,0,1-.58,2.31c-.33.45-.72.95-1.12,1.4l-.54.63a6,6,0,0,0-.43.59,23.75,23.75,0,0,1-2,2c-.69.63-1.37,1.22-2,1.72a4.59,4.59,0,0,0,1.45,3.21,2.38,2.38,0,0,0,2.6.14,6.84,6.84,0,0,0,2.13-1.58,10,10,0,0,0,2.42-4c.18-.23.51.23.51.41a7.46,7.46,0,0,1-.83,2.67A10.78,10.78,0,0,1,233.64,232.72Zm-5-13.43a10.11,10.11,0,0,0-1.19,3.25,19.18,19.18,0,0,0-.33,5c.69-.59,1.41-1.22,2.13-1.9a17.28,17.28,0,0,0,2.13-2.35,4.4,4.4,0,0,0,1.27-2.12,5.9,5.9,0,0,0-1.52-2.44A2.35,2.35,0,0,0,228.65,219.29Z" transform="translate(-79.89 -83.54)"/><path class="cls-2" d="M220.84,264a99.12,99.12,0,0,0-.87,13.2.65.65,0,0,1-.47.54.72.72,0,0,1-.76-.68,94.16,94.16,0,0,0-2.53-11.39c-1.27-4.57-3.51-10.31-5.53-13.25a3.24,3.24,0,0,1-.47-.81c-2.24,6.51-2.6,17.45-2.1,24.19a.37.37,0,0,1-.58.36,1.65,1.65,0,0,1-.54-1l-.22-1.27a92.48,92.48,0,0,1,.65-15.92,35,35,0,0,1,2.78-9.67c.69,0,.83,1.08.69,1.54l-.33.68a1.74,1.74,0,0,1,.76.59c1.88,2.26,4.85,9.63,6,13.65.61,2.17,1.23,4.34,1.7,6.6a98.5,98.5,0,0,1,1.66-14,28.71,28.71,0,0,1,2.75-7.82,4.6,4.6,0,0,1,2-2.08.71.71,0,0,1,.14.86,14.83,14.83,0,0,0-2.24,4.39A47.34,47.34,0,0,0,220.84,264Z" transform="translate(-79.89 -83.54)"/><path class="cls-2" d="M235.38,276.12a5.78,5.78,0,0,1-3.18,1.76,3.4,3.4,0,0,1-3.11-1.36,6.3,6.3,0,0,1-.9-1.58,7.55,7.55,0,0,1-.4-1.31,3.3,3.3,0,0,1-.94.63,1.28,1.28,0,0,1-1.19-.14.94.94,0,0,1-.11-.95,2,2,0,0,1,.65-.27,4.08,4.08,0,0,0,.54-.23c.25-.13.61-.45.9-.63a27.73,27.73,0,0,1,.25-6.24,10.61,10.61,0,0,1,1.7-4.38,3.42,3.42,0,0,1,3.29-1c1.27.54,2.21,2.22,2.71,3.66a3.17,3.17,0,0,1-.58,2.31c-.33.45-.72.95-1.12,1.4l-.54.63a6,6,0,0,0-.43.59,23.75,23.75,0,0,1-2,2c-.69.63-1.37,1.22-2,1.72a4.59,4.59,0,0,0,1.45,3.21,2.38,2.38,0,0,0,2.6.14,6.84,6.84,0,0,0,2.13-1.58,10,10,0,0,0,2.42-4c.18-.23.51.23.51.41a7.46,7.46,0,0,1-.83,2.67A10.78,10.78,0,0,1,235.38,276.12Zm-5-13.43a10.11,10.11,0,0,0-1.19,3.25,19.18,19.18,0,0,0-.33,5c.69-.59,1.41-1.22,2.13-1.9a17.25,17.25,0,0,0,2.13-2.35,4.4,4.4,0,0,0,1.27-2.12,5.9,5.9,0,0,0-1.52-2.44A2.35,2.35,0,0,0,230.39,262.69Z" transform="translate(-79.89 -83.54)"/><path class="cls-2" d="M253.5,271.83c-1.41,3.17-3.8,6-7.16,6-1.27,0-2.42-1.13-3-2.62a53.7,53.7,0,0,1-.43-12.34c-1.08.32-2.13.81-3.25,1.22a1.22,1.22,0,0,1-1.16-.86c0-.32.15-.72.51-.68a1.07,1.07,0,0,0,.76-.09c.8-.27,2.42-.9,3.22-1.22l.61-7a3.89,3.89,0,0,1,.25-1.13.57.57,0,0,1,1-.23,2.87,2.87,0,0,1,.69.86l.18.27a6.14,6.14,0,0,1,.51.86,5.35,5.35,0,0,1,.43,1.08c-.69-.09-.94-.54-1.41-1a.86.86,0,0,0-.33-.27,3.86,3.86,0,0,0-.18.77l-.11,1.67c-.07,1.36-.25,2.8-.36,3.71.83-.09,1.74-.32,2.6-.45a5.35,5.35,0,0,1,2.64.27c.29.27.07.81-.14.95-.72,0-1.66.14-2.6.27a11.44,11.44,0,0,0-2.6.63,58.92,58.92,0,0,0,.22,11.57,2.54,2.54,0,0,0,1.92,2.22c2.86.23,5-1.85,6.26-4.43l.72-1.45c.22-.5.43-.95.61-1.45.07-.23.25-.14.33-.09a.43.43,0,0,1,.18.32,4.56,4.56,0,0,1-.29,1.4C253.89,271,253.68,271.46,253.5,271.83Z" transform="translate(-79.89 -83.54)"/></svg>